<?xml version="1.0" encoding="utf-8"?>
<!-- Generator: Adobe Illustrator 21.1.0, SVG Export Plug-In . SVG Version: 6.00 Build 0)  -->
<svg version="1.1" id="图层_1" xmlns="http://www.w3.org/2000/svg" xmlns:xlink="http://www.w3.org/1999/xlink" x="0px" y="0px"
	 viewBox="0 0 306.1 200" style="enable-background:new 0 0 306.1 200;" xml:space="preserve">
<style type="text/css">
	.st0{fill:#3F5B8F;}
</style>
<path class="st0" d="M30.6,136.7h4.1c1.1,0,2,0.9,2,2c0,1.1-0.9,2-2,2h-4.1v4.1c0,1.1-0.9,2-2,2c-1.1,0-2-0.9-2-2c0,0,0,0,0,0v-4.1
	h-4.1c-1.1,0-2-0.9-2-2c0-1.1,0.9-2,2-2h4.1v-4.1c0-1.1,0.9-2,2-2c1.1,0,2,0.9,2,2V136.7z M299.9,120.4v-4.1c0-1.1-0.9-2-2-2
	c0,0,0,0,0,0c-1.1,0-2,0.9-2,2v4.1h-4.1c-1.1,0-2,0.9-2,2c0,0,0,0,0,0c0,1.1,0.9,2,2,2h4.1v4.1c0,1.1,0.9,2,2,2c1.1,0,2-0.9,2-2
	v-4.1h4.1c1.1,0,2-0.9,2-2c0-1.1-0.9-2-2-2H299.9z M151.7,187.7H48.9c-2.2,0-4.1-1.8-4.1-4.1c0,0,0,0,0,0c0-2.3,1.8-4.1,4.1-4.1
	h18.5c-1.4-2.5-2.2-5.3-2.2-8.1V53c0-9,7.3-16.3,16.3-16.3c0,0,0,0,0,0h12.2v-4.1c0-9,7.3-16.3,16.3-16.3c0,0,0,0,0,0h97.9
	c9,0,16.3,7.3,16.3,16.3c0,0,0,0,0,0V151c0,3-0.8,5.7-2.2,8.1h22.6c2.3,0,4.1,1.8,4.1,4.1c0,2.3-1.8,4.1-4.1,4.1h-49v4.1
	c0,3-0.8,5.7-2.2,8.1h2.2c2.2,0,4.1,1.8,4.1,4.1c0,2.3-1.8,4.1-4.1,4.1h-21.5c1.9,3.1,1.5,7.2-1.3,9.9c-3.2,3.2-8.3,3.2-11.5,0
	c0,0,0,0,0,0L151.7,187.7z M166.6,179.5h13c4.5,0,8.1-3.6,8.1-8.2V52.8c0-4.4-3.5-7.9-7.9-7.9H81.3c-4.3,0-7.9,3.6-7.9,7.9v118.5
	c0,4.5,3.7,8.2,8.1,8.2h61.9l-2.1-2.1c-2.1-2.1-2.9-5.1-2.1-7.9l-3.9-3.9c-12.7,9.4-30.6,6.8-40-5.9c-8.5-11.4-7.3-27.2,2.7-37.2
	c11.1-11.2,29.2-11.2,40.4-0.1c10.1,10,11.2,26,2.7,37.4l3.9,3.9c2.8-0.8,5.8,0,7.9,2.1L166.6,179.5z M195.8,159.1h12.3
	c4.5,0,8.1-3.7,8.1-8.2V32.6c0-4.5-3.6-8.2-8.1-8.2h-98c-4.5,0-8.1,3.7-8.1,8.2v4.1h77.5c9,0,16.3,7.3,16.3,16.3c0,0,0,0,0,0V159.1z
	 M52,9.2h6.1c1.7,0,3.1,1.4,3.1,3.1c0,1.7-1.4,3.1-3.1,3.1H52v6.1c0,1.7-1.4,3.1-3.1,3.1c-1.7,0-3.1-1.4-3.1-3.1c0,0,0,0,0,0v-6.1
	h-6.1c-1.7,0-3.1-1.3-3.1-3c0,0,0,0,0,0c0-1.7,1.4-3.1,3.1-3.1h6.1V3.1C45.9,1.4,47.3,0,49,0C50.6,0,52,1.4,52,3.1
	C52,3.1,52,9.2,52,9.2z M4.1,183.6c0-2.3,1.8-4.1,4.1-4.1h24.5c2.2,0,4.1,1.8,4.1,4.1c0,2.3-1.8,4.1-4.1,4.1H8.1
	C5.9,187.7,4.1,185.9,4.1,183.6C4.1,183.6,4.1,183.6,4.1,183.6z M132.7,157.2c8-8,8-20.9,0-28.9s-20.9-8-28.9,0l0,0
	c-8,8-8,20.9,0,28.9C111.9,165.2,124.8,165.2,132.7,157.2L132.7,157.2L132.7,157.2z M89.8,61.2c0-2.3,1.8-4.1,4.1-4.1h44.9
	c2.3,0,4.1,1.8,4.1,4.1s-1.8,4.1-4.1,4.1H93.8C91.6,65.3,89.8,63.5,89.8,61.2C89.8,61.2,89.8,61.2,89.8,61.2z M89.8,81.6
	c0-2.3,1.8-4.1,4.1-4.1h65.3c2.2,0,4.1,1.8,4.1,4.1c0,2.3-1.8,4.1-4.1,4.1H93.8C91.6,85.7,89.8,83.9,89.8,81.6
	C89.8,81.6,89.8,81.6,89.8,81.6z M89.8,102c0-2.3,1.8-4.1,4.1-4.1h28.6c2.2,0,4.1,1.8,4.1,4.1c0,2.3-1.8,4.1-4.1,4.1H93.8
	C91.6,106.1,89.8,104.3,89.8,102C89.8,102,89.8,102,89.8,102z M12.2,77.5C5.5,77.5,0,72,0,65.3S5.5,53,12.2,53c0,0,0,0,0,0
	c6.8,0,12.2,5.5,12.2,12.2S19,77.5,12.2,77.5z M12.2,71.4c3.4,0,6.1-2.7,6.1-6.1c0-3.4-2.7-6.1-6.1-6.1s-6.1,2.7-6.1,6.1
	C6.1,68.7,8.9,71.4,12.2,71.4z M265.2,53c-6.8,0-12.2-5.5-12.2-12.2c0-6.8,5.5-12.2,12.2-12.2c0,0,0,0,0,0c6.8,0,12.2,5.5,12.2,12.2
	C277.4,47.6,271.9,53,265.2,53z M265.2,46.9c3.4,0,6.1-2.7,6.1-6.1c0-3.4-2.7-6.1-6.1-6.1c-3.4,0-6.1,2.7-6.1,6.1
	C259.1,44.2,261.8,46.9,265.2,46.9z"/>
</svg>
